<svg width="95" height="32" viewBox="0 0 95 32" fill="none" xmlns="http://www.w3.org/2000/svg">
<path d="M25.4171 22.8537L33.7254 10.4219H38.2254L39.8171 22.8537H35.3371L35.0066 20.3828H31.5466L29.8971 22.8537H25.4171ZM32.8512 17.4872H35.2712L34.8671 14.4758L32.8512 17.4872ZM41.0124 22.8537L44.3808 10.4219H51.3208C52.4008 10.4219 53.2299 10.6343 53.8082 11.059C54.3998 11.4837 54.7713 12.0563 54.9227 12.777C55.0776 13.4848 55.0382 14.2699 54.8046 15.1321C54.564 16.0201 54.1478 16.818 53.556 17.5258C52.9642 18.2336 52.2525 18.7934 51.421 19.2052C50.5929 19.6042 49.6855 19.8037 48.6988 19.8037H46.1388L45.3124 22.8537H41.0124ZM47.0123 16.5799H48.5723C49.0523 16.5799 49.4472 16.4512 49.7569 16.1938C50.0835 15.9236 50.306 15.5697 50.4246 15.1321C50.5501 14.6688 50.5344 14.3085 50.3775 14.0511C50.224 13.7808 49.914 13.6457 49.4473 13.6457H47.8073L47.0123 16.5799ZM53.5124 22.8537L56.8808 10.4219H63.8208C64.9008 10.4219 65.7299 10.6343 66.3082 11.059C66.8998 11.4837 67.2713 12.0563 67.4227 12.777C67.5776 13.4848 67.5382 14.2699 67.3046 15.1321C67.064 16.0201 66.6478 16.818 66.056 17.5258C65.4642 18.2336 64.7525 18.7934 63.921 19.2052C63.0929 19.6042 62.1855 19.8037 61.1988 19.8037H58.6388L57.8124 22.8537H53.5124ZM59.5123 16.5799H61.0723C61.5523 16.5799 61.9472 16.4512 62.2569 16.1938C62.5835 15.9236 62.806 15.5697 62.9246 15.1321C63.0501 14.6688 63.0344 14.3085 62.8775 14.0511C62.724 13.7808 62.414 13.6457 61.9473 13.6457H60.3073L59.5123 16.5799Z" fill="#FF645A"/>
<rect x="0.738485" y="0.965199" width="83.6583" height="30" rx="4" transform="matrix(1 0 -0.261515 0.965199 8.95505 0.687886)" stroke="#FF645A" stroke-width="2"/>
</svg>
